<?xml version="1.0" encoding="utf-8"?>
<!-- Generator: Adobe Illustrator 16.0.0, SVG Export Plug-In . SVG Version: 6.00 Build 0)  -->
<!DOCTYPE svg PUBLIC "-//W3C//DTD SVG 1.1//EN" "http://www.w3.org/Graphics/SVG/1.1/DTD/svg11.dtd">
<svg version="1.1" id="Layer_1" xmlns="http://www.w3.org/2000/svg" xmlns:xlink="http://www.w3.org/1999/xlink" x="0px" y="0px"
	 width="40px" height="40px" viewBox="0 0 40 40" enable-background="new 0 0 40 40" xml:space="preserve">
<path fill="#FFFFFF" d="M20,0C8.972,0,0,8.972,0,20.001C0,31.028,8.972,40,20,40s20-8.972,20-19.999C40,8.972,31.027,0,20,0z
	 M5.979,30.579l0-5.005l4.335,2.503L5.979,30.579z M25.016,24.996h-2.201v-3.737h-0.625v3.737h-1.875v-2.501h-0.625v2.501h-1.875
	v-3.737h-0.625v3.737h-2.174v-5h10V24.996z M20.015,11.255l-9.082,15.731l-4.33-2.5L17.853,5h4.325l11.249,19.486l-4.329,2.5
	L20.015,11.255z M34.051,30.579l-4.334-2.502l4.335-2.503L34.051,30.579z"/>
</svg>
