<?xml version="1.0" encoding="utf-8"?>
<!-- Generator: Adobe Illustrator 15.0.0, SVG Export Plug-In . SVG Version: 6.00 Build 0)  -->
<!DOCTYPE svg PUBLIC "-//W3C//DTD SVG 1.1//EN" "http://www.w3.org/Graphics/SVG/1.1/DTD/svg11.dtd">
<svg version="1.1" id="Layer_1" xmlns="http://www.w3.org/2000/svg" xmlns:xlink="http://www.w3.org/1999/xlink" x="0px" y="0px"
	 width="72px" height="72px" viewBox="0 0 72 72" enable-background="new 0 0 72 72" xml:space="preserve">
<path fill="#DC4A26" d="M61.455,10.544C54.656,3.745,45.617,0,36.002,0c-9.617,0-18.657,3.745-25.457,10.546
	C3.745,17.345,0,26.386,0,36.001c0,9.617,3.744,18.657,10.544,25.455C17.343,68.256,26.384,72,36,72
	c9.617,0,18.657-3.744,25.456-10.544C68.256,54.658,72,45.617,72,36C72,26.384,68.256,17.344,61.455,10.544z M6.587,46.317
	l2.345-8.752l6.408,6.406L6.587,46.317z M16.9,42.362l-6.363-6.363L37.617,8.918l6.362,6.364L16.9,42.362z M58.303,48.729
	l-2.42-2.42l3.155-3.156l-1.591-1.592l-3.154,3.156L52.7,43.127l4.786-4.783l-1.594-1.592l-4.783,4.784l-1.59-1.592l3.154-3.153
	L51.083,35.2l-3.154,3.154l-1.592-1.592l4.783-4.782l-1.591-1.591l-4.784,4.783l-1.59-1.59l3.156-3.155l-1.593-1.591l-3.155,3.154
	l-1.59-1.59l4.784-4.785l-1.591-1.59l-4.784,4.785l-2.355-2.354l9.546-9.547l22.273,22.274L58.303,48.729z"/>
</svg>
