<?xml version="1.0" encoding="utf-8"?>
<!-- Generator: Adobe Illustrator 15.0.0, SVG Export Plug-In . SVG Version: 6.00 Build 0)  -->
<!DOCTYPE svg PUBLIC "-//W3C//DTD SVG 1.1//EN" "http://www.w3.org/Graphics/SVG/1.1/DTD/svg11.dtd">
<svg version="1.1" id="Layer_1" xmlns="http://www.w3.org/2000/svg" xmlns:xlink="http://www.w3.org/1999/xlink" x="0px" y="0px"
	 width="40px" height="40px" viewBox="0 0 40 40" enable-background="new 0 0 40 40" xml:space="preserve">
<path fill="#FFFFFF" d="M34.143,5.858C30.364,2.08,25.343,0,20.001,0C14.659,0,9.637,2.081,5.859,5.859
	C2.081,9.636,0,14.659,0,20.001c0,5.342,2.08,10.364,5.858,14.142S14.658,40,20,40c5.342,0,10.364-2.08,14.143-5.857
	C37.92,30.365,40,25.343,40,20C40,14.658,37.92,9.636,34.143,5.858z M3.66,25.731l1.303-4.862l3.56,3.561L3.66,25.731z
	 M9.389,23.535L5.854,20L20.898,4.955l3.535,3.535L9.389,23.535z M32.391,27.071l-1.345-1.345l1.754-1.752l-0.885-0.884
	l-1.752,1.753l-0.885-0.884l2.658-2.658l-0.885-0.884l-2.658,2.658l-0.883-0.885l1.752-1.752l-0.883-0.884l-1.754,1.752
	l-0.884-0.885l2.658-2.657l-0.884-0.883l-2.657,2.658l-0.884-0.884l1.752-1.752l-0.884-0.884l-1.752,1.752l-0.885-0.883l2.659-2.659
	l-0.884-0.884l-2.659,2.659l-1.308-1.309l5.302-5.303l12.376,12.375L32.391,27.071z"/>
</svg>
