<?xml version="1.0" encoding="utf-8"?>
<!-- Generator: Adobe Illustrator 15.0.0, SVG Export Plug-In . SVG Version: 6.00 Build 0)  -->
<!DOCTYPE svg PUBLIC "-//W3C//DTD SVG 1.1//EN" "http://www.w3.org/Graphics/SVG/1.1/DTD/svg11.dtd">
<svg version="1.1" id="Layer_1" xmlns="http://www.w3.org/2000/svg" xmlns:xlink="http://www.w3.org/1999/xlink" x="0px" y="0px"
	 width="40px" height="40px" viewBox="0 0 40 40" enable-background="new 0 0 40 40" xml:space="preserve">
<path fill="#FFFFFF" d="M20,0C8.972,0,0,8.972,0,20s8.972,20,20,20s20-8.972,20-20S31.028,0,20,0z M29.374,25.612H10.627
	c-3.106,0-5.625-2.518-5.625-5.624c0-2.99,2.333-5.433,5.277-5.614c-1.316-2.639-0.366-5.881,2.223-7.376
	C15.09,5.503,18.372,6.302,20,8.762C21.629,6.302,24.911,5.504,27.5,7c2.589,1.494,3.538,4.736,2.223,7.375
	c2.945,0.181,5.275,2.624,5.275,5.615C34.998,23.095,32.48,25.612,29.374,25.612z M13.75,17.61c0,0.69-0.559,1.25-1.25,1.25
	c-0.69,0-1.25-0.56-1.25-1.25c0-0.69,0.56-1.25,1.25-1.25C13.191,16.361,13.75,16.92,13.75,17.61z M17.5,17.61
	c0,0.69-0.559,1.25-1.25,1.25S15,18.301,15,17.61c0-0.69,0.56-1.25,1.25-1.25S17.5,16.92,17.5,17.61z M21.25,17.61
	c0,0.69-0.56,1.25-1.25,1.25s-1.25-0.56-1.25-1.25c0-0.69,0.56-1.25,1.25-1.25S21.25,16.92,21.25,17.61z M25,17.61
	c0,0.69-0.56,1.25-1.25,1.25s-1.25-0.56-1.25-1.25c0-0.69,0.56-1.25,1.25-1.25S25,16.92,25,17.61z M28.75,17.61
	c0,0.69-0.56,1.25-1.25,1.25s-1.251-0.56-1.251-1.25c0-0.69,0.561-1.25,1.251-1.25S28.75,16.92,28.75,17.61z M13.75,21.361
	c0,0.69-0.559,1.25-1.25,1.25c-0.69,0-1.25-0.56-1.25-1.25s0.56-1.25,1.25-1.25C13.191,20.11,13.75,20.671,13.75,21.361z
	 M16.25,22.611c-0.69,0-1.25-0.56-1.25-1.25s0.56-1.25,1.25-1.25h7.5c0.691,0,1.25,0.56,1.25,1.25s-0.559,1.25-1.25,1.25H16.25z
	 M28.75,21.361c0,0.69-0.56,1.25-1.25,1.25s-1.251-0.56-1.251-1.25s0.561-1.25,1.251-1.25C28.19,20.11,28.75,20.671,28.75,21.361z"
	/>
</svg>
