<?xml version="1.0" encoding="utf-8"?>
<!-- Generator: Adobe Illustrator 15.0.0, SVG Export Plug-In . SVG Version: 6.00 Build 0)  -->
<!DOCTYPE svg PUBLIC "-//W3C//DTD SVG 1.1//EN" "http://www.w3.org/Graphics/SVG/1.1/DTD/svg11.dtd">
<svg version="1.1" id="Layer_1" xmlns="http://www.w3.org/2000/svg" xmlns:xlink="http://www.w3.org/1999/xlink" x="0px" y="0px"
	 width="72px" height="72px" viewBox="0 0 72 72" enable-background="new 0 0 72 72" xml:space="preserve">
<path fill="#DC4A26" d="M36,0C16.149,0,0,16.149,0,36c0,19.85,16.149,36,36,36c19.852,0,36-16.15,36-36C72,16.149,55.852,0,36,0z
	 M52.872,46.103H19.129c-5.592,0-10.126-4.533-10.126-10.123c0-5.382,4.199-9.78,9.498-10.105
	c-2.369-4.75-0.659-10.585,4.001-13.277c4.66-2.69,10.568-1.254,13.499,3.173c2.932-4.426,8.837-5.862,13.499-3.172
	c4.659,2.691,6.369,8.525,4,13.277c5.301,0.325,9.497,4.722,9.497,10.105C62.997,41.569,58.464,46.103,52.872,46.103z M24.75,31.7
	c0,1.243-1.006,2.25-2.25,2.25s-2.25-1.006-2.25-2.25c0-1.242,1.006-2.25,2.25-2.25S24.75,30.458,24.75,31.7z M31.5,31.7
	c0,1.243-1.008,2.25-2.25,2.25c-1.243,0-2.25-1.006-2.25-2.25c0-1.242,1.007-2.25,2.25-2.25C30.493,29.45,31.5,30.458,31.5,31.7z
	 M38.25,31.7c0,1.243-1.007,2.25-2.25,2.25s-2.25-1.006-2.25-2.25c0-1.242,1.007-2.25,2.25-2.25S38.25,30.458,38.25,31.7z
	 M44.999,31.7c0,1.243-1.007,2.25-2.25,2.25c-1.242,0-2.249-1.006-2.249-2.25c0-1.242,1.007-2.25,2.249-2.25
	C43.992,29.45,44.999,30.458,44.999,31.7z M51.75,31.7c0,1.243-1.007,2.25-2.25,2.25c-1.242,0-2.251-1.006-2.251-2.25
	c0-1.242,1.009-2.25,2.251-2.25C50.743,29.45,51.75,30.458,51.75,31.7z M24.75,38.45c0,1.242-1.006,2.249-2.25,2.249
	s-2.25-1.007-2.25-2.249c0-1.243,1.006-2.25,2.25-2.25C23.744,36.199,24.75,37.207,24.75,38.45z M29.251,40.699
	c-1.243,0-2.25-1.007-2.25-2.249c0-1.243,1.007-2.25,2.25-2.25h13.498c1.244,0,2.252,1.007,2.252,2.25
	c0,1.242-1.008,2.249-2.252,2.249H29.251z M51.75,38.45c0,1.242-1.007,2.249-2.25,2.249c-1.242,0-2.251-1.007-2.251-2.249
	c0-1.243,1.009-2.25,2.251-2.25C50.743,36.199,51.75,37.207,51.75,38.45z"/>
</svg>
