<?xml version="1.0" encoding="utf-8"?>
<!-- Generator: Adobe Illustrator 15.0.0, SVG Export Plug-In . SVG Version: 6.00 Build 0)  -->
<!DOCTYPE svg PUBLIC "-//W3C//DTD SVG 1.1//EN" "http://www.w3.org/Graphics/SVG/1.1/DTD/svg11.dtd">
<svg version="1.1" id="Layer_1" xmlns="http://www.w3.org/2000/svg" xmlns:xlink="http://www.w3.org/1999/xlink" x="0px" y="0px"
	 width="40px" height="40px" viewBox="0 0 40 40" enable-background="new 0 0 40 40" xml:space="preserve">
<path fill="#FFFFFF" d="M20,0C8.953,0,0,8.954,0,20c0,11.046,8.953,20,20,20c11.045,0,20-8.954,20-20C40,8.954,31.045,0,20,0z
	 M33.334,28.007c0,1.474-1.195,2.666-2.668,2.666H9.333c-1.473,0-2.667-1.192-2.667-2.666v-16c0-1.473,1.194-2.667,2.667-2.667h8.63
	V8.009c0-0.737,0.597-1.334,1.333-1.334h1.333c0.736,0,1.334,0.597,1.334,1.334V9.34h8.703c1.473,0,2.667,1.193,2.667,2.667
	L33.334,28.007L33.334,28.007z M17.333,12.006c-4.411,0-8,3.589-8,8c0,4.411,3.589,8.001,8,8.001c4.412,0,8-3.59,8-8.001
	C25.333,15.595,21.745,12.006,17.333,12.006z M17.333,22.674c-1.47,0-2.666-1.197-2.666-2.668c0-1.47,1.196-2.667,2.666-2.667
	S20,18.535,20,20.006S18.804,22.674,17.333,22.674z M30.682,13.327v1.334c0,0.736-0.598,1.333-1.333,1.333h-1.333
	c-0.736,0-1.334-0.597-1.334-1.333v-1.334c0-0.736,0.598-1.333,1.334-1.333h1.333C30.084,11.994,30.682,12.591,30.682,13.327z"/>
</svg>
