<?xml version="1.0" encoding="utf-8"?>
<!-- Generator: Adobe Illustrator 13.0.0, SVG Export Plug-In . SVG Version: 6.00 Build 14948)  -->
<!DOCTYPE svg PUBLIC "-//W3C//DTD SVG 1.1//EN" "http://www.w3.org/Graphics/SVG/1.1/DTD/svg11.dtd">
<svg version="1.1" xmlns="http://www.w3.org/2000/svg" xmlns:xlink="http://www.w3.org/1999/xlink" x="0px" y="0px"
	 width="74.969px" height="30.129px" viewBox="0 0 74.969 30.129" enable-background="new 0 0 74.969 30.129" xml:space="preserve">
<g id="Layer_3">
</g>
<g id="Layer_1">
	<g>
		<g>
			<path fill="#FFFFFF" d="M13.989,4.058v19.449h-6.37V10.601h-3.03l3.487-6.543H0v14.335c0,1.738,0.181,3.315,0.542,4.738
				c0.359,1.425,0.95,2.662,1.766,3.708c0.817,1.046,1.903,1.857,3.241,2.431c1.343,0.573,3.162,0.858,5.125,0.858
				c2.259,0,4.34-0.148,6.055-0.438c1.721-0.296,3.193-0.574,4.241-0.837V4.058H13.989z"/>
			<path fill="#FFFFFF" d="M32.978,12.06c-0.682,0.171-1.837,0.412-3.298,0.412c-2.536,0-3.439-1.567-3.439-3.787V4.058h1.474v4.31
				c0,2.012,0.621,2.802,2.126,2.802c0.619,0,1.458-0.077,1.664-0.156V4.058h1.474V12.06z"/>
			<path fill="#FFFFFF" d="M50.995,12.06c-0.681,0.171-1.842,0.412-3.299,0.412c-2.535,0-3.44-1.567-3.44-3.787V4.058h1.476v4.31
				c0,2.012,0.619,2.802,2.123,2.802c0.62,0,1.461-0.077,1.668-0.156V4.058h1.473V12.06z"/>
			<path fill="#FFFFFF" d="M74.969,12.06c-0.68,0.171-1.841,0.412-3.299,0.412c-2.534,0-3.439-1.567-3.439-3.787V4.058h1.474v4.31
				c0,2.012,0.619,2.802,2.126,2.802c0.618,0,1.457-0.077,1.66-0.156V4.058h1.479V12.06z"/>
			<path fill="#FFFFFF" d="M36.708,4.423c0.363-0.238,1.17-0.556,2.119-0.556c2.367,0,3.746,1.777,3.746,4.314
				c0,2.667-1.646,4.314-4.172,4.314c-1.379,0-2.488-0.238-3.173-0.428V0.254L36.708,0V4.423z M36.708,11.018
				c0.297,0.083,0.869,0.177,1.678,0.177c1.587,0,2.648-1.093,2.648-3.014c0-1.711-0.684-3.012-2.396-3.012
				c-0.806,0-1.567,0.333-1.931,0.634V11.018z"/>
			<path fill="#FFFFFF" d="M53.255,4.292c0.68-0.17,1.84-0.412,3.292-0.412c2.61,0,3.433,1.551,3.433,3.781v4.618h-1.473v-4.3
				c0-2.04-0.554-2.798-2.119-2.798c-0.635,0-1.439,0.109-1.663,0.156v6.942h-1.47V4.292z"/>
			<path fill="#FFFFFF" d="M63.533,4.061h3.198v1.233h-3.198V9.09c0,1.648,0.536,2.072,1.55,2.072c0.884,0,1.469-0.285,1.673-0.365
				l0.285,1.218c-0.298,0.144-1.136,0.44-2.088,0.44c-2.212,0-2.893-1.151-2.893-3.349V1.768l1.473-0.254V4.061z"/>
			<path fill="#FFFFFF" d="M35.313,15.299c0.686-0.174,1.853-0.412,3.325-0.412c2.641,0,3.466,1.563,3.466,3.818v4.671h-1.488
				v-4.351c0-2.062-0.555-2.831-2.143-2.831c-0.635,0-1.451,0.113-1.674,0.16v7.021h-1.486V15.299z"/>
			<path fill="#FFFFFF" d="M43.378,19.205c0-2.892,1.867-4.307,3.77-4.307c2.204,0,3.445,1.351,3.445,4.162
				c0,0.125,0,0.345-0.012,0.521h-5.677c0.123,1.701,0.974,2.598,2.798,2.598c1.021,0,1.76-0.221,2.123-0.395l0.203,1.226
				c-0.361,0.188-1.355,0.458-2.486,0.458C44.7,23.468,43.378,21.659,43.378,19.205L43.378,19.205z M49.071,18.404
				c0.011-1.322-0.742-2.265-1.934-2.265c-1.355,0-2.076,1.131-2.205,2.265H49.071z"/>
			<path fill="#FFFFFF" d="M33.86,19.186c0,2.583-1.649,4.295-3.884,4.295c-2.233,0-3.883-1.712-3.883-4.295
				c0-2.573,1.65-4.287,3.883-4.287C32.211,14.898,33.86,16.612,33.86,19.186L33.86,19.186z M32.335,19.186
				c0-1.836-0.927-3.001-2.359-3.001c-1.429,0-2.355,1.165-2.355,3.001c0,1.844,0.926,3.004,2.355,3.004
				C31.408,22.189,32.335,21.029,32.335,19.186z"/>
		</g>
	</g>
</g>
<g id="Layer_2">
</g>
</svg>
